<svg id="_x31_" enable-background="new 0 0 24 24" height="512" viewBox="0 0 24 24" width="512" xmlns="http://www.w3.org/2000/svg"><g><path d="m21.5 21h-19c-1.378 0-2.5-1.121-2.5-2.5v-13c0-1.379 1.122-2.5 2.5-2.5h5.5c.133 0 .26.053.354.146l1.853 1.854h11.293c1.378 0 2.5 1.121 2.5 2.5v11c0 1.379-1.122 2.5-2.5 2.5zm-19-17c-.827 0-1.5.673-1.5 1.5v13c0 .827.673 1.5 1.5 1.5h19c.827 0 1.5-.673 1.5-1.5v-11c0-.827-.673-1.5-1.5-1.5h-11.5c-.133 0-.26-.053-.354-.146l-1.853-1.854z"/></g><g><path d="m5 11c-1.103 0-2-.897-2-2s.897-2 2-2 2 .897 2 2-.897 2-2 2zm0-3c-.551 0-1 .448-1 1s.449 1 1 1 1-.448 1-1-.449-1-1-1z"/></g><g><path d="m.68 19.82c-.128 0-.256-.049-.354-.146-.195-.195-.195-.512 0-.707l5.61-5.61c.588-.586 1.541-.585 2.127 0l1.437 1.436 4.937-4.937c.587-.586 1.54-.586 2.127 0l7.29 7.29c.195.195.195.512 0 .707s-.512.195-.707 0l-7.29-7.29c-.193-.193-.52-.193-.713 0l-5.29 5.29c-.195.195-.512.195-.707 0l-1.79-1.79c-.193-.193-.52-.193-.713 0l-5.61 5.61c-.098.098-.226.147-.354.147z"/></g></svg>