<?xml version="1.0" encoding="UTF-8" standalone="no"?>
<!-- Created with Inkscape (http://www.inkscape.org/) -->

<svg
   xmlns:dc="http://purl.org/dc/elements/1.1/"
   xmlns:cc="http://creativecommons.org/ns#"
   xmlns:rdf="http://www.w3.org/1999/02/22-rdf-syntax-ns#"
   xmlns:svg="http://www.w3.org/2000/svg"
   xmlns="http://www.w3.org/2000/svg"
   xmlns:sodipodi="http://sodipodi.sourceforge.net/DTD/sodipodi-0.dtd"
   xmlns:inkscape="http://www.inkscape.org/namespaces/inkscape"
   width="64px"
   height="64px"
   id="svg4382"
   version="1.1"
   inkscape:version="0.48.4 r9939"
   sodipodi:docname="redo.svg">
  <defs
     id="defs4384">
    <clipPath
       id="clipPath1534">
      <path
         inkscape:connector-curvature="0"
         d="M 0,96 96,96 96,0 0,0 0,96 z"
         id="path1536" />
    </clipPath>
    <clipPath
       id="clipPath778">
      <path
         inkscape:connector-curvature="0"
         d="M 0,96 96,96 96,0 0,0 0,96 z"
         id="path780" />
    </clipPath>
    <clipPath
       id="clipPath1244">
      <path
         inkscape:connector-curvature="0"
         d="M 0,96 96,96 96,0 0,0 0,96 z"
         id="path1246" />
    </clipPath>
    <clipPath
       id="clipPath1244-6">
      <path
         inkscape:connector-curvature="0"
         d="M 0,96 96,96 96,0 0,0 0,96 z"
         id="path1246-4" />
    </clipPath>
  </defs>
  <sodipodi:namedview
     id="base"
     pagecolor="#ffffff"
     bordercolor="#666666"
     borderopacity="1.0"
     inkscape:pageopacity="0.0"
     inkscape:pageshadow="2"
     inkscape:zoom="2.0237053"
     inkscape:cx="5.6616183"
     inkscape:cy="-20.901202"
     inkscape:current-layer="layer1"
     showgrid="true"
     inkscape:document-units="px"
     inkscape:grid-bbox="true"
     inkscape:window-width="1119"
     inkscape:window-height="715"
     inkscape:window-x="245"
     inkscape:window-y="24"
     inkscape:window-maximized="0" />
  <metadata
     id="metadata4387">
    <rdf:RDF>
      <cc:Work
         rdf:about="">
        <dc:format>image/svg+xml</dc:format>
        <dc:type
           rdf:resource="http://purl.org/dc/dcmitype/StillImage" />
        <dc:title></dc:title>
      </cc:Work>
    </rdf:RDF>
  </metadata>
  <g
     id="layer1"
     inkscape:label="Layer 1"
     inkscape:groupmode="layer">
    <g
       id="g1240"
       transform="matrix(0.66151022,0,0,-0.66151022,0.61381699,63.374301)"
       style="fill:#333333;fill-opacity:0.62745098">
      <g
         id="g1242"
         clip-path="url(#clipPath1244-6)"
         style="fill:#333333;fill-opacity:0.62745098">
        <g
           id="g1248"
           transform="translate(34.8691,57.7568)"
           style="fill:#333333;fill-opacity:0.62745098">
          <path
             inkscape:connector-curvature="0"
             style="fill:#333333;fill-opacity:0.62745098;fill-rule:nonzero;stroke:none"
             id="path1250"
             d="M 0,0 0,-8.48 -18.357,4.979 0,18.433 0,10.04 l 0,-0.035 10.557,0 c 20.748,0 34.062,-6.076 34.062,-23.979 0,-17.898 -13.314,-23.972 -34.062,-23.972 l -23.761,0 0,9.967 23.761,0 c 17.675,0 24.093,3.796 24.093,14.005 0,10.211 -6.418,14.009 -24.093,14.009 L 0,0.035 0,0 z" />
        </g>
      </g>
    </g>
  </g>
</svg>
